<?xml version="1.0" encoding="utf-8"?>
<!-- Generator: Adobe Illustrator 27.7.0, SVG Export Plug-In . SVG Version: 6.00 Build 0)  -->
<svg version="1.1" id="Layer_1" xmlns="http://www.w3.org/2000/svg" xmlns:xlink="http://www.w3.org/1999/xlink" x="0px" y="0px"
	 viewBox="0 0 512 512" style="enable-background:new 0 0 512 512;" xml:space="preserve">
<g>
	<path d="M148.21,107.79c0.02,59.54,48.25,107.77,107.79,107.79c59.54-0.02,107.77-48.25,107.79-107.79
		C363.77,48.25,315.54,0.02,256,0C196.46,0.02,148.23,48.25,148.21,107.79c0,14.88,12.06,26.95,26.95,26.95
		c14.88,0,26.95-12.06,26.95-26.95c0.05-29.75,24.14-53.84,53.89-53.89c29.75,0.05,53.84,24.14,53.89,53.89
		c-0.05,29.75-24.14,53.84-53.89,53.89c-29.75-0.05-53.84-24.14-53.89-53.89c0-14.88-12.06-26.95-26.95-26.95
		C160.27,80.84,148.21,92.91,148.21,107.79L148.21,107.79z"/>
	<path d="M116.81,188.63v26.95h278.37l0.52,0l-0.51-26.74l0,26.74l0.51,0l-0.51-26.74l0,26.74l0,0l0,0L439.3,458.1l0,0l0,0.03h0
		l-0.01-0.03l0,0.03h0l-0.01-0.03l4.82,26.51l-2.42-26.84l-3.62,0.33l-365.38,0l0,0v0h0l0,0v0h0l-26.95,0l26.84,2.42l0.33-3.62
		l43.9-241.33l0,0l0,0l0,0l0,0l0,0l0.09,0l-0.09-26.89l-1.45,26.85l1.54,0.04l-0.09-26.89l-1.45,26.85l1.45,0.04V188.63l1.45-26.91
		l-1.33-0.04l-0.22,0l0.09,26.64v-26.64l-0.09,0l0.09,26.64v-26.64c-26.05,0.01-48.35,18.62-53.02,44.25L19.67,448.46l-0.33,2.4
		l-0.44,4.83l-0.11,2.42c0.02,29.77,24.12,53.87,53.89,53.89h0h366.59l2.42-0.11l4.83-0.44l2.4-0.33
		c26.02-4.79,44.25-27.34,44.25-52.99c0-3.21-0.29-6.45-0.88-9.68l0,0l-44.11-242.53l0,0c-4.67-25.63-26.97-44.24-53.02-44.25
		l-0.52,0.01l0.52,26.94v-26.95H116.81V188.63l1.45-26.91L116.81,188.63z"/>
</g>
</svg>
